# xmcd
#
# Track frame offsets:
#       150
#       15403
#       29252
#       43968
#       64136
#       80612
#       98839
#       111311
#       126678
#       149651
#       169183
#       191117
#       208849
#       229946
#
# Disc length: 3321 seconds
#
# Revision: 1
# Processed by: cddbd v1.5.2PL0 Copyright (c) Steve Scherf et al.
# Submitted via: MusiCat 1.1
#
DISCID=d70cf70e
DTITLE=Dor, Georges - Disc 2
DYEAR=1900
DGENRE=
TTITLE0=Entre Québec et Montréal
TTITLE1=Qui bat la mesure du coeur
TTITLE2=Le temps passe énormément
TTITLE3=Levez-vous !
TTITLE4=Le sablier
TTITLE5=Le jeux de nos amours
TTITLE6=Chanson pour ma femme
TTITLE7=Je choisis de t'aimer
TTITLE8=Après l'enfance
TTITLE9=Ceux que j'aimais
TTITLE10=Pépère Moïse mémère Agnès
TTITLE11=Les ancêtres
TTITLE12=Mes ormes dans la plaine
TTITLE13=Bouclier (version 1976)
EXTD=\n\n
EXTT0=
EXTT1=
EXTT2=
EXTT3=
EXTT4=
EXTT5=
EXTT6=
EXTT7=
EXTT8=
EXTT9=
EXTT10=
EXTT11=
EXTT12=
EXTT13=
PLAYORDER=
